<svg version="1.1" xmlns="http://www.w3.org/2000/svg" xmlns:xlink="http://www.w3.org/1999/xlink" width="650.67395" height="397.44408" viewBox="0,0,650.67395,397.44408"><g transform="translate(65.06588,15.53534)"><g data-paper-data="{&quot;isPaintingLayer&quot;:true}" fill-rule="nonzero" stroke-linejoin="miter" stroke-miterlimit="10" stroke-dasharray="" stroke-dashoffset="0" style="mix-blend-mode: normal"><path d="M-18.68464,197.36012v-211.89546h511.43306v211.89546z" fill="#caecf4" stroke="#bee7f1" stroke-width="2" stroke-linecap="butt"/><path d="M-2.89172,191.76878v-181.93248l495.64014,182.51798z" fill="#bee7f1" stroke="#bee7f1" stroke-width="2" stroke-linecap="round"/><path d="M-64.06588,380.90874v-192.80031h648.67395v192.80031z" fill="#15b9ff" stroke="#00a2e8" stroke-width="2" stroke-linecap="butt"/><path d="M452.44149,12.6152v43.04115" fill="none" stroke="#71b796" stroke-width="2" stroke-linecap="round"/><g fill="#ffffff" stroke-linecap="butt"><path d="M182.01404,39.5262c0,6.84464 -10.53826,8.00386 -23.48298,8.80183c-12.74482,0.78564 -22.47288,-5.09974 -22.47288,-11.94438c0,-6.84464 9.50358,-12.39332 22.47288,-12.39332c12.96929,0 23.48298,8.69123 23.48298,15.53587z" stroke="#71b796" stroke-width="0"/><path d="M182.03721,39.10296c0.05967,0.78191 0.50224,3.95188 0.66494,4.719c0.06793,0.32024 2.70421,0.30886 2.74103,0.31021c3.72746,0.13768 7.39422,-0.00296 10.96426,1.28269l1.27461,0.31865c0.55665,0.12633 0.97219,0.62414 0.97219,1.21902c0,0.59488 -0.41555,1.09269 -0.97219,1.21902l-1.32144,0.33036c0,0 -3.64496,-0.05491 -6.09774,0.03663c-6.81074,0.25418 -13.59876,0.11184 -20.4079,0.11184l-0.05024,-0.02267l-0.00162,0.01944l-1.33503,-0.11125c-0.64739,-0.04711 -12.92272,0.29171 -12.92272,-0.36769c0,-0.50988 3.34789,-10.14388 3.78565,-10.33835l7.96791,-0.14223z" stroke="none" stroke-width="0.5"/></g><g fill="#ffffff" stroke-linecap="butt"><path d="M327.37268,96.90461c0,6.84464 -10.53826,8.00386 -23.48298,8.80182c-12.74482,0.78564 -22.47288,-5.09974 -22.47288,-11.94438c0,-6.84464 9.50358,-12.39332 22.47288,-12.39332c12.96929,0 23.48298,8.69123 23.48298,15.53587z" stroke="#71b796" stroke-width="0"/><path d="M327.39582,96.48136c0.05967,0.78191 0.50224,3.95188 0.66494,4.719c0.06792,0.32024 2.70421,0.30885 2.74103,0.31021c3.72746,0.13768 7.39422,-0.00296 10.96426,1.28269l1.27461,0.31865c0.55665,0.12632 0.97219,0.62414 0.97219,1.21902c0,0.59487 -0.41554,1.09269 -0.97219,1.21902l-1.32144,0.33036c0,0 -3.64496,-0.05491 -6.09774,0.03663c-6.81074,0.25418 -13.59876,0.11184 -20.4079,0.11184l-0.05024,-0.02267l-0.00162,0.01944l-1.33502,-0.11125c-0.64739,-0.04711 -12.92272,0.29171 -12.92272,-0.36769c0,-0.50988 3.34789,-10.14388 3.78565,-10.33835l7.9679,-0.14222z" stroke="none" stroke-width="0.5"/></g><g fill="#ffffff" stroke-linecap="butt"><path d="M114.79933,138.98211c0,6.84464 -10.53826,8.00387 -23.48298,8.80183c-12.74482,0.78564 -22.47288,-5.09974 -22.47288,-11.94438c0,-6.84464 9.50358,-12.39332 22.47288,-12.39332c12.96929,0 23.48298,8.69123 23.48298,15.53587z" stroke="#71b796" stroke-width="0"/><path d="M114.82249,138.55886c0.05967,0.78191 0.50224,3.95188 0.66494,4.719c0.06793,0.32024 2.70421,0.30885 2.74103,0.31022c3.72746,0.13768 7.39422,-0.00297 10.96426,1.28269l1.27461,0.31865c0.55665,0.12633 0.97219,0.62414 0.97219,1.21902c0,0.59488 -0.41555,1.09269 -0.97219,1.21902l-1.32144,0.33036c0,0 -3.64496,-0.05491 -6.09774,0.03663c-6.81074,0.25419 -13.59876,0.11184 -20.4079,0.11184l-0.05024,-0.02267l-0.00162,0.01943l-1.33502,-0.11126c-0.64739,-0.0471 -12.92272,0.29172 -12.92272,-0.36769c0,-0.50988 3.34789,-10.14389 3.78565,-10.33835l7.96791,-0.14222z" stroke="none" stroke-width="0.5"/></g><g stroke-linecap="round"><path d="M24.8001,278.75059l11.02325,-41.21735l3.95399,12.34124l9.10616,43.25425l11.14306,55.83513h9.22598l8.0278,-108.31536l5.75126,-19.76995l6.41258,18.17837l20.69295,110.38266l22.94432,0.69881l24.22548,-54.50734l16.18914,54.04147l15.72327,0.11647l15.72327,-71.16236l32.37829,70.34708l7.33752,0.69881l2.67878,-56.02143h2.56232l3.02818,55.67203h2.91172l34.24179,-89.215l12.69509,42.51106l31.09713,-66.27067l18.51851,47.98509l28.76776,-43.32635l20.03261,64.2907l20.26555,-82.22688l10.13277,53.925l51.07422,-78.41744v170.20333h-486.45336l-0.67272,-164.87461z" fill="#188338" stroke="none" stroke-width="0"/><path d="M77.28396,240.8849c0,0 5.17892,-20.19653 5.47669,-20.14881c0.41829,0.06704 6.69373,19.40506 6.69373,19.40506" fill="none" stroke="#198339" stroke-width="3"/><path d="M431.43421,277.83958l51.38163,-80.47946v168.06073l-486.80374,3.28586v-163.87775l28.22414,74.45334" fill="none" stroke="#0e4920" stroke-width="3"/><path d="M77.27814,240.35245l-7.78597,109.00358l-9.24584,-0.72993c0,0 -21.33318,-109.38926 -24.81778,-111.4367c-1.78142,-0.58758 -26.03434,112.40994 -26.03434,112.40994" fill="none" stroke="#0e4920" stroke-width="3"/><path d="M314.74411,349.19388c0,0 -23.53996,-88.94832 -24.67063,-89.64292c-0.62152,-0.38181 -34.08691,89.64292 -34.08691,89.64292l-2.63656,0.18833c0,0 -4.23959,-73.19107 -4.89646,-73.44693c-0.72202,-0.28124 -3.76651,73.63525 -3.76651,73.63525l-7.53302,-0.37664c0,0 -30.99364,-70.6446 -32.20365,-70.43372c-0.35657,0.06214 -15.44269,70.62204 -15.44269,70.62204l-16.12146,0.21713c0,0 -15.37823,-54.25035 -16.54519,-54.25848c-0.33792,-0.00235 -23.19295,54.52516 -23.19295,54.52516l-23.76618,-0.50999l-20.43817,-109.24689" fill="none" stroke="#0e4920" stroke-width="3"/><path d="M302.8796,304.1841c0,0 30.13263,-67.77455 30.69705,-67.98549c0.92587,-0.34603 31.45035,82.8632 31.45035,82.8632" fill="none" stroke="#0e4920" stroke-width="3"/><path d="M352.42806,285.02196c0,0 27.6725,-45.45564 28.54535,-44.56757c1.2011,1.22205 24.12542,78.82199 24.12542,78.82199" fill="none" stroke="#0e4920" stroke-width="3"/><path d="M401.41556,306.20077c0,0 18.94744,-84.24778 19.7055,-84.3469c1.25243,-0.16376 21.54713,123.02124 21.54713,123.02124" fill="none" stroke="#0e4920" stroke-width="3"/></g></g></g></svg>